<?xml version="1.0" encoding="UTF-8"?>
<svg version="1.1" xmlns="http://www.w3.org/2000/svg" width="16" height="16">
<path d="M0 0 C0.92554687 0.40089844 1.85109375 0.80179687 2.8046875 1.21484375 C18.58004847 8.9237666 28.11759833 21.97279279 34.0546875 38.15234375 C38.3842245 51.19462668 37.56322172 67.47839124 32 80 C31.59910156 80.92554687 31.19820313 81.85109375 30.78515625 82.8046875 C23.0762334 98.58004847 10.02720721 108.11759833 -6.15234375 114.0546875 C-19.19462668 118.3842245 -35.47839124 117.56322172 -48 112 C-48.92554688 111.59910156 -49.85109375 111.19820313 -50.8046875 110.78515625 C-66.58004847 103.0762334 -76.11759833 90.02720721 -82.0546875 73.84765625 C-86.3842245 60.80537332 -85.56322172 44.52160876 -80 32 C-79.59910156 31.07445312 -79.19820313 30.14890625 -78.78515625 29.1953125 C-71.0762334 13.41995153 -58.02720721 3.88240167 -41.84765625 -2.0546875 C-28.80537332 -6.3842245 -12.52160876 -5.56322172 0 0 Z " fill="#825CFF" transform="translate(84,4)"/>
<path d="M0 0 C1.69921875 1.2421875 1.69921875 1.2421875 3 3 C3.1796875 5.0859375 3.1796875 5.0859375 2.875 7.375 C2.78992188 8.12523438 2.70484375 8.87546875 2.6171875 9.6484375 C2 12 2 12 0.42578125 14.39453125 C-1.38116148 17.69653345 -1.13468217 19.61308385 -0.6875 23.3125 C-0.56761719 24.38113281 -0.44773437 25.44976562 -0.32421875 26.55078125 C-0.16373047 27.76314453 -0.16373047 27.76314453 0 29 C-0.76183594 28.88140625 -1.52367187 28.7628125 -2.30859375 28.640625 C-8.79485855 27.83085411 -13.18434594 27.80678794 -18.96484375 30.9921875 C-25.53399124 34.24523942 -34.162023 33.99216303 -41.09765625 32.19921875 C-51.79585481 28.18221774 -59.45294444 21.493796 -64.35546875 11.1640625 C-65 9 -65 9 -64 6 C-63.731875 6.58007812 -63.46375 7.16015625 -63.1875 7.7578125 C-59.44005624 15.22804579 -55.14446938 19.48036123 -47.25 22.375 C-37.82773427 24.14513211 -28.48652765 23.7460202 -20 19 C-14.72339582 14.67099014 -11.79472153 9.15543551 -9.04296875 3.00390625 C-7.04358635 -0.83760376 -3.95980903 -0.32324972 0 0 Z " fill="#FBF9FF" transform="translate(91,63)"/>
<path d="M0 0 C5.27490775 4.82955906 8.79470236 10.38995719 10.83203125 17.28125 C10.33703125 18.76625 10.33703125 18.76625 9.83203125 20.28125 C9.55230469 19.62898438 9.27257812 18.97671875 8.984375 18.3046875 C5.80369351 11.3705973 2.67341911 6.56312277 -4.34765625 3.25390625 C-13.0229541 0.1677757 -23.18108282 -0.52903078 -31.66796875 3.34375 C-38.75992865 7.49429047 -42.34932697 12.77151999 -45.2109375 20.36328125 C-46.16796875 22.28125 -46.16796875 22.28125 -49.16796875 24.28125 C-52.16796875 24.65625 -52.16796875 24.65625 -55.16796875 24.28125 C-57.55300824 22.21421578 -58.07314664 20.72375319 -58.73046875 17.65625 C-57.19518722 8.44456082 -50.45083198 1.62613098 -43.16796875 -3.71875 C-29.33326592 -12.27246411 -12.48796585 -9.90036932 0 0 Z " fill="#FAF9FF" transform="translate(84.16796875,32.71875)"/>
<path d="M0 0 C2.31 0 4.62 0 7 0 C7.02686553 1.97909398 7.04633375 3.95828971 7.0625 5.9375 C7.07410156 7.03964844 7.08570312 8.14179687 7.09765625 9.27734375 C7 12 7 12 6 13 C4.02 13 2.04 13 0 13 C0 8.71 0 4.42 0 0 Z " fill="#F6F2FF" transform="translate(63,52)"/>
<path d="M0 0 C1.98 0 3.96 0 6 0 C6.02686553 1.97909398 6.04633375 3.95828971 6.0625 5.9375 C6.07410156 7.03964844 6.08570313 8.14179687 6.09765625 9.27734375 C6 12 6 12 5 13 C3.35 13 1.7 13 0 13 C0 8.71 0 4.42 0 0 Z " fill="#F7F5FF" transform="translate(45,52)"/>
</svg>
